<svg width="41" height="44" viewBox="0 0 41 44" fill="none" xmlns="http://www.w3.org/2000/svg">
<path d="M27.3362 4.56328V10.0633C32.394 12.5555 35.8815 17.7117 35.8815 23.693C35.8815 32.1063 29.0019 38.9211 20.5087 38.9211C12.0154 38.9211 5.12717 32.1063 5.12717 23.693C5.12717 17.7117 8.61469 12.5555 13.6725 10.0633V4.56328C5.70842 7.35625 0 14.85 0 23.693C0 34.9078 9.17859 44 20.5 44C31.8214 44 41 34.9078 41 23.693C41 14.85 35.2916 7.35625 27.3362 4.56328ZM20.5 16.9211C22.3826 16.9211 23.9181 15.4 23.9181 13.5352V3.38594C23.9181 1.52109 22.3912 0 20.5 0C18.6088 0 17.0819 1.52109 17.0819 3.38594V13.5438C17.0819 15.4086 18.6174 16.9211 20.5 16.9211Z" fill="#10BD00"/>
</svg>
