<svg width="40" height="40" viewBox="0 0 40 40" fill="none" xmlns="http://www.w3.org/2000/svg">
<path d="M7.31645 9.1938C7.51803 8.98276 7.75958 8.81393 8.02705 8.69714C8.29451 8.58036 8.58254 8.51796 8.87435 8.51358C9.16617 8.5092 9.45594 8.56293 9.72678 8.67163C9.99763 8.78033 10.2441 8.94184 10.452 9.14674C10.6598 9.35164 10.8248 9.59585 10.9373 9.86513C11.0498 10.1344 11.1076 10.4234 11.1074 10.7152C11.1071 11.0071 11.0488 11.296 10.9358 11.5651C10.8228 11.8341 10.6574 12.0781 10.4493 12.2826C7.956 14.8147 6.56294 18.2286 6.57285 21.7822C6.57285 29.1984 12.4909 35.2 19.7729 35.2C27.0549 35.2 32.9729 29.1984 32.9729 21.78C32.9729 18.1654 31.5627 14.784 29.0965 12.2826C28.8883 12.0781 28.7229 11.8341 28.6099 11.5651C28.4969 11.296 28.4386 11.0071 28.4383 10.7152C28.4381 10.4234 28.4959 10.1344 28.6084 9.86513C28.7209 9.59585 28.8859 9.35164 29.0937 9.14674C29.3016 8.94184 29.5481 8.78033 29.8189 8.67163C30.0898 8.56293 30.3795 8.5092 30.6714 8.51358C30.9632 8.51796 31.2512 8.58036 31.5187 8.69714C31.7861 8.81393 32.0277 8.98276 32.2293 9.1938C35.5338 12.5485 37.382 17.0711 37.3729 21.78C37.3729 31.614 29.5013 39.6 19.7729 39.6C10.0467 39.6 2.17285 31.614 2.17285 21.78C2.17285 16.9994 4.04285 12.5114 7.31645 9.1938Z" fill="#FA1717"/>
<path d="M21.9732 2.2C21.9732 0.984974 20.9883 0 19.7732 0C18.5582 0 17.5732 0.984974 17.5732 2.2V20.9C17.5732 22.115 18.5582 23.1 19.7732 23.1C20.9883 23.1 21.9732 22.115 21.9732 20.9V2.2Z" fill="#FA1717"/>
<path d="M0.617566 3.7554C0.216818 3.34048 -0.00492936 2.78475 8.31658e-05 2.20792C0.00509569 1.63109 0.236467 1.0793 0.644365 0.671404C1.05226 0.263506 1.60405 0.0321343 2.18088 0.0271217C2.75772 0.0221092 3.31344 0.243857 3.72837 0.644605L38.9284 35.8446C39.3291 36.2595 39.5509 36.8153 39.5459 37.3921C39.5408 37.9689 39.3095 38.5207 38.9016 38.9286C38.4937 39.3365 37.9419 39.5679 37.3651 39.5729C36.7882 39.5779 36.2325 39.3562 35.8176 38.9554L0.617566 3.7554Z" fill="#FA1717"/>
</svg>
