<svg width="36" height="42" viewBox="0 0 36 42" fill="none" xmlns="http://www.w3.org/2000/svg">
<path d="M36 34V36H0V34L4 30V18C4 11.8 8.06 6.34 14 4.58V4C14 2.93913 14.4214 1.92172 15.1716 1.17157C15.9217 0.421427 16.9391 0 18 0C19.0609 0 20.0783 0.421427 20.8284 1.17157C21.5786 1.92172 22 2.93913 22 4V4.58C27.94 6.34 32 11.8 32 18V30L36 34ZM22 38C22 39.0609 21.5786 40.0783 20.8284 40.8284C20.0783 41.5786 19.0609 42 18 42C16.9391 42 15.9217 41.5786 15.1716 40.8284C14.4214 40.0783 14 39.0609 14 38" fill="#FFCD29"/>
</svg>
