<svg width="189" height="184" viewBox="0 0 189 184" fill="none" xmlns="http://www.w3.org/2000/svg">
<path d="M75.9124 0H55.0859V18.2159L75.9124 37.5945V0ZM138.392 58.1359V95.7304L157.136 113.171L159.218 111.233V58.1359C159.218 47.4776 149.846 38.7572 138.392 38.7572V0H117.565V38.7572H77.162L97.9884 58.1359H138.392ZM14.6826 8.13902L0 21.8009L34.2595 53.6788V111.427L70.7058 145.34V174.408H122.772V145.34L127.77 140.689L174.317 184L189 170.338L14.6826 8.13902ZM101.945 137.298V155.029H91.5322V137.298L55.0859 103.191V73.0574L113.088 127.027L101.945 137.298Z" fill="#23242D"/>
</svg>
