<svg width="101" height="96" viewBox="0 0 101 96" fill="none" xmlns="http://www.w3.org/2000/svg">
<rect width="100.254" height="95.6272" rx="12" fill="#D9D9D9"/>
<path fill-rule="evenodd" clip-rule="evenodd" d="M43.7687 12.339C40.5474 12.339 37.4579 13.4602 35.1801 15.4561C32.9022 17.4519 31.6226 20.1588 31.6226 22.9814V72.6458C31.6226 75.4683 32.9022 78.1753 35.1801 80.1711C37.4579 82.1669 40.5474 83.2882 43.7687 83.2882H68.0611C71.2825 83.2882 74.3719 82.1669 76.6498 80.1711C78.9276 78.1753 80.2073 75.4683 80.2073 72.6458V22.9814C80.2073 20.1588 78.9276 17.4519 76.6498 15.4561C74.3719 13.4602 71.2825 12.339 68.0611 12.339H43.7687ZM49.0037 34.6632C49.763 33.9981 50.7926 33.6245 51.8662 33.6245C52.9398 33.6245 53.9694 33.9981 54.7286 34.6632L66.8748 45.3055C67.6339 45.9708 68.0602 46.8729 68.0602 47.8136C68.0602 48.7542 67.6339 49.6564 66.8748 50.3216L54.7286 60.964C53.965 61.6102 52.9423 61.9678 51.8808 61.9597C50.8192 61.9516 49.8037 61.5785 49.0531 60.9208C48.3024 60.2631 47.8766 59.3733 47.8674 58.4432C47.8581 57.5131 48.2662 56.617 49.0037 55.9479L54.2388 51.361H19.4764C18.4026 51.361 17.3728 50.9873 16.6135 50.322C15.8542 49.6567 15.4276 48.7544 15.4276 47.8136C15.4276 46.8727 15.8542 45.9704 16.6135 45.3052C17.3728 44.6399 18.4026 44.2661 19.4764 44.2661H54.2388L49.0037 39.6793C48.2447 39.014 47.8183 38.1119 47.8183 37.1712C47.8183 36.2305 48.2447 35.3284 49.0037 34.6632Z" fill="#232423"/>
</svg>
