<svg width="348" height="102" viewBox="0 0 348 102" fill="none" xmlns="http://www.w3.org/2000/svg">
<path d="M0 8.00001C0 3.58173 3.58172 0 8 0H339.347C343.766 0 347.347 3.58172 347.347 8V93.3133C347.347 97.7316 343.766 101.313 339.347 101.313H7.99998C3.58171 101.313 0 97.7316 0 93.3133V8.00001Z" fill="white"/>
<path d="M101.682 36.3143L110.318 60.8029H110.659L119.296 36.3143H122.989L112.307 65.4052H108.671L97.9888 36.3143H101.682ZM127.066 65.4052V43.587H130.418V65.4052H127.066ZM128.77 39.9507C128.117 39.9507 127.553 39.7281 127.08 39.2831C126.616 38.838 126.384 38.3029 126.384 37.6779C126.384 37.0529 126.616 36.5179 127.08 36.0728C127.553 35.6277 128.117 35.4052 128.77 35.4052C129.423 35.4052 129.982 35.6277 130.446 36.0728C130.92 36.5179 131.156 37.0529 131.156 37.6779C131.156 38.3029 130.92 38.838 130.446 39.2831C129.982 39.7281 129.423 39.9507 128.77 39.9507ZM152.012 48.4734L149.001 49.3257C148.812 48.8238 148.532 48.3361 148.163 47.8626C147.803 47.3796 147.311 46.9819 146.686 46.6694C146.061 46.3569 145.26 46.2007 144.285 46.2007C142.95 46.2007 141.837 46.5084 140.947 47.124C140.066 47.73 139.626 48.5018 139.626 49.4393C139.626 50.2726 139.929 50.9308 140.535 51.4137C141.141 51.8967 142.088 52.2992 143.376 52.6211L146.615 53.4166C148.565 53.8901 150.019 54.6145 150.975 55.5899C151.932 56.5558 152.41 57.801 152.41 59.3257C152.41 60.5757 152.05 61.6931 151.33 62.6779C150.62 63.6628 149.626 64.4393 148.348 65.0075C147.069 65.5757 145.582 65.8598 143.887 65.8598C141.662 65.8598 139.82 65.3768 138.362 64.4109C136.903 63.445 135.98 62.034 135.592 60.1779L138.774 59.3825C139.077 60.5567 139.65 61.4374 140.492 62.0245C141.345 62.6117 142.457 62.9052 143.83 62.9052C145.393 62.9052 146.633 62.5738 147.552 61.9109C148.48 61.2385 148.944 60.4336 148.944 59.4961C148.944 58.7385 148.679 58.1041 148.149 57.5927C147.618 57.0719 146.804 56.6836 145.705 56.4279L142.069 55.5757C140.071 55.1022 138.603 54.3683 137.666 53.374C136.738 52.3702 136.274 51.1154 136.274 49.6098C136.274 48.3787 136.619 47.2897 137.311 46.3427C138.011 45.3957 138.963 44.6524 140.166 44.1126C141.378 43.5728 142.751 43.3029 144.285 43.3029C146.444 43.3029 148.139 43.7764 149.37 44.7234C150.611 45.6704 151.491 46.9204 152.012 48.4734ZM163.877 65.9166C162.494 65.9166 161.239 65.6562 160.112 65.1353C158.986 64.605 158.091 63.8427 157.428 62.8484C156.765 61.8446 156.433 60.6325 156.433 59.212C156.433 57.962 156.68 56.9488 157.172 56.1723C157.665 55.3863 158.323 54.7707 159.147 54.3257C159.97 53.8806 160.879 53.5492 161.874 53.3313C162.878 53.1041 163.886 52.9242 164.899 52.7916C166.225 52.6211 167.3 52.4933 168.124 52.4081C168.957 52.3134 169.563 52.1571 169.942 51.9393C170.33 51.7215 170.524 51.3427 170.524 50.8029V50.6893C170.524 49.2878 170.141 48.1988 169.374 47.4223C168.616 46.6457 167.466 46.2575 165.922 46.2575C164.322 46.2575 163.067 46.6079 162.158 47.3086C161.249 48.0094 160.61 48.7575 160.24 49.5529L157.058 48.4166C157.627 47.0908 158.384 46.0586 159.331 45.32C160.288 44.5719 161.329 44.051 162.456 43.7575C163.593 43.4545 164.71 43.3029 165.808 43.3029C166.509 43.3029 167.314 43.3882 168.223 43.5586C169.142 43.7196 170.027 44.0558 170.879 44.5671C171.741 45.0785 172.456 45.8503 173.024 46.8825C173.593 47.9147 173.877 49.2973 173.877 51.0302V65.4052H170.524V62.4507H170.354C170.127 62.9242 169.748 63.4308 169.218 63.9706C168.687 64.5103 167.982 64.9696 167.101 65.3484C166.22 65.7272 165.146 65.9166 163.877 65.9166ZM164.388 62.9052C165.714 62.9052 166.831 62.6448 167.74 62.124C168.659 61.6031 169.35 60.9308 169.814 60.1069C170.288 59.2831 170.524 58.4166 170.524 57.5075V54.4393C170.382 54.6098 170.07 54.766 169.587 54.9081C169.113 55.0406 168.564 55.159 167.939 55.2632C167.324 55.3579 166.722 55.4431 166.135 55.5188C165.557 55.5851 165.089 55.642 164.729 55.6893C163.858 55.8029 163.043 55.9876 162.286 56.2433C161.538 56.4895 160.932 56.8635 160.468 57.3654C160.013 57.8579 159.786 58.5302 159.786 59.3825C159.786 60.5473 160.217 61.4279 161.078 62.0245C161.95 62.6117 163.053 62.9052 164.388 62.9052ZM161.661 40.9734L159.047 40.8598C159.047 39.4109 159.459 38.2272 160.283 37.3086C161.116 36.3806 162.144 35.9166 163.365 35.9166C163.905 35.9166 164.383 36.0113 164.8 36.2007C165.217 36.3806 165.614 36.5889 165.993 36.8257C166.372 37.0624 166.76 37.2755 167.158 37.4649C167.565 37.6448 168.024 37.7348 168.536 37.7348C169.075 37.7348 169.53 37.5264 169.899 37.1098C170.278 36.6836 170.468 36.1723 170.468 35.5757L173.024 35.8029C173.024 37.2802 172.608 38.4545 171.774 39.3257C170.95 40.1969 169.928 40.6325 168.706 40.6325C168.053 40.6325 167.513 40.5425 167.087 40.3626C166.661 40.1732 166.282 39.9601 165.95 39.7234C165.619 39.4867 165.269 39.2783 164.899 39.0984C164.53 38.909 164.075 38.8143 163.536 38.8143C162.996 38.8143 162.546 39.0274 162.186 39.4535C161.836 39.8702 161.661 40.3768 161.661 40.9734ZM188.859 65.8598C186.889 65.8598 185.161 65.391 183.674 64.4535C182.197 63.516 181.042 62.2045 180.208 60.5188C179.384 58.8332 178.973 56.8635 178.973 54.6098C178.973 52.337 179.384 50.3531 180.208 48.6581C181.042 46.963 182.197 45.6467 183.674 44.7092C185.161 43.7717 186.889 43.3029 188.859 43.3029C190.829 43.3029 192.552 43.7717 194.029 44.7092C195.516 45.6467 196.671 46.963 197.495 48.6581C198.329 50.3531 198.745 52.337 198.745 54.6098C198.745 56.8635 198.329 58.8332 197.495 60.5188C196.671 62.2045 195.516 63.516 194.029 64.4535C192.552 65.391 190.829 65.8598 188.859 65.8598ZM188.859 62.8484C190.355 62.8484 191.586 62.4649 192.552 61.6978C193.518 60.9308 194.233 59.9223 194.697 58.6723C195.161 57.4223 195.393 56.0681 195.393 54.6098C195.393 53.1514 195.161 51.7925 194.697 50.5331C194.233 49.2736 193.518 48.2556 192.552 47.4791C191.586 46.7026 190.355 46.3143 188.859 46.3143C187.363 46.3143 186.132 46.7026 185.166 47.4791C184.2 48.2556 183.485 49.2736 183.021 50.5331C182.557 51.7925 182.325 53.1514 182.325 54.6098C182.325 56.0681 182.557 57.4223 183.021 58.6723C183.485 59.9223 184.2 60.9308 185.166 61.6978C186.132 62.4649 187.363 62.8484 188.859 62.8484ZM235.453 45.4052C235.141 44.4488 234.729 43.5918 234.218 42.8342C233.716 42.0671 233.114 41.4137 232.414 40.874C231.722 40.3342 230.936 39.9223 230.056 39.6382C229.175 39.3541 228.209 39.212 227.158 39.212C225.434 39.212 223.867 39.6571 222.456 40.5473C221.045 41.4374 219.923 42.749 219.09 44.4819C218.256 46.2149 217.84 48.3408 217.84 50.8598C217.84 53.3787 218.261 55.5046 219.104 57.2376C219.947 58.9706 221.088 60.2821 222.527 61.1723C223.967 62.0624 225.586 62.5075 227.385 62.5075C229.052 62.5075 230.52 62.1524 231.789 61.4421C233.067 60.7224 234.061 59.7092 234.772 58.4024C235.491 57.0861 235.851 55.5378 235.851 53.7575L236.931 53.9848H228.181V50.8598H239.26V53.9848C239.26 56.3806 238.749 58.4639 237.726 60.2348C236.713 62.0056 235.311 63.3787 233.522 64.3541C231.741 65.32 229.696 65.8029 227.385 65.8029C224.809 65.8029 222.546 65.1969 220.595 63.9848C218.654 62.7726 217.139 61.0492 216.05 58.8143C214.97 56.5795 214.431 53.9279 214.431 50.8598C214.431 48.5586 214.738 46.4895 215.354 44.6524C215.979 42.8058 216.86 41.2338 217.996 39.9365C219.132 38.6391 220.477 37.6448 222.03 36.9535C223.583 36.2622 225.292 35.9166 227.158 35.9166C228.692 35.9166 230.122 36.1486 231.448 36.6126C232.783 37.0671 233.971 37.7158 235.013 38.5586C236.064 39.392 236.94 40.391 237.641 41.5558C238.342 42.7111 238.825 43.9942 239.09 45.4052H235.453ZM253.987 65.8598C251.884 65.8598 250.071 65.3957 248.546 64.4677C247.031 63.5302 245.862 62.2234 245.038 60.5473C244.223 58.8617 243.816 56.9014 243.816 54.6666C243.816 52.4317 244.223 50.462 245.038 48.7575C245.862 47.0435 247.008 45.7082 248.475 44.7518C249.953 43.7859 251.676 43.3029 253.646 43.3029C254.782 43.3029 255.904 43.4923 257.012 43.8711C258.12 44.2499 259.129 44.8654 260.038 45.7177C260.947 46.5605 261.671 47.6779 262.211 49.07C262.751 50.462 263.021 52.176 263.021 54.212V55.6325H246.203V52.7348H259.612C259.612 51.5037 259.365 50.4052 258.873 49.4393C258.39 48.4734 257.699 47.7111 256.799 47.1524C255.909 46.5937 254.858 46.3143 253.646 46.3143C252.311 46.3143 251.155 46.6457 250.18 47.3086C249.214 47.962 248.471 48.8143 247.95 49.8654C247.429 50.9166 247.169 52.0435 247.169 53.2461V55.1779C247.169 56.8257 247.453 58.2224 248.021 59.3683C248.598 60.5046 249.399 61.3711 250.421 61.9677C251.444 62.5548 252.633 62.8484 253.987 62.8484C254.867 62.8484 255.663 62.7253 256.373 62.4791C257.093 62.2234 257.713 61.8446 258.234 61.3427C258.755 60.8313 259.157 60.1969 259.441 59.4393L262.68 60.3484C262.339 61.4469 261.766 62.4128 260.961 63.2461C260.156 64.07 259.162 64.7139 257.978 65.1779C256.794 65.6325 255.464 65.8598 253.987 65.8598ZM268.12 65.4052V43.587H271.359V46.8825H271.586C271.984 45.8029 272.704 44.927 273.745 44.2546C274.787 43.5823 275.961 43.2461 277.268 43.2461C277.514 43.2461 277.822 43.2509 278.191 43.2603C278.561 43.2698 278.84 43.284 279.029 43.3029V46.712C278.916 46.6836 278.655 46.641 278.248 46.5842C277.85 46.5179 277.429 46.4848 276.984 46.4848C275.923 46.4848 274.976 46.7073 274.143 47.1524C273.319 47.588 272.666 48.194 272.183 48.9706C271.709 49.7376 271.473 50.6135 271.473 51.5984V65.4052H268.12ZM289.423 65.9166C288.041 65.9166 286.786 65.6562 285.659 65.1353C284.532 64.605 283.638 63.8427 282.975 62.8484C282.312 61.8446 281.98 60.6325 281.98 59.212C281.98 57.962 282.227 56.9488 282.719 56.1723C283.211 55.3863 283.87 54.7707 284.693 54.3257C285.517 53.8806 286.426 53.5492 287.421 53.3313C288.424 53.1041 289.433 52.9242 290.446 52.7916C291.772 52.6211 292.847 52.4933 293.671 52.4081C294.504 52.3134 295.11 52.1571 295.489 51.9393C295.877 51.7215 296.071 51.3427 296.071 50.8029V50.6893C296.071 49.2878 295.688 48.1988 294.921 47.4223C294.163 46.6457 293.013 46.2575 291.469 46.2575C289.869 46.2575 288.614 46.6079 287.705 47.3086C286.796 48.0094 286.156 48.7575 285.787 49.5529L282.605 48.4166C283.173 47.0908 283.931 46.0586 284.878 45.32C285.834 44.5719 286.876 44.051 288.003 43.7575C289.139 43.4545 290.257 43.3029 291.355 43.3029C292.056 43.3029 292.861 43.3882 293.77 43.5586C294.689 43.7196 295.574 44.0558 296.426 44.5671C297.288 45.0785 298.003 45.8503 298.571 46.8825C299.139 47.9147 299.423 49.2973 299.423 51.0302V65.4052H296.071V62.4507H295.901C295.673 62.9242 295.295 63.4308 294.764 63.9706C294.234 64.5103 293.529 64.9696 292.648 65.3484C291.767 65.7272 290.692 65.9166 289.423 65.9166ZM289.935 62.9052C291.261 62.9052 292.378 62.6448 293.287 62.124C294.206 61.6031 294.897 60.9308 295.361 60.1069C295.834 59.2831 296.071 58.4166 296.071 57.5075V54.4393C295.929 54.6098 295.617 54.766 295.134 54.9081C294.66 55.0406 294.111 55.159 293.486 55.2632C292.87 55.3579 292.269 55.4431 291.682 55.5188C291.104 55.5851 290.636 55.642 290.276 55.6893C289.405 55.8029 288.59 55.9876 287.833 56.2433C287.084 56.4895 286.478 56.8635 286.014 57.3654C285.56 57.8579 285.333 58.5302 285.333 59.3825C285.333 60.5473 285.763 61.4279 286.625 62.0245C287.496 62.6117 288.6 62.9052 289.935 62.9052ZM308.894 36.3143V65.4052H305.542V36.3143H308.894Z" fill="#264877"/>
<path d="M54.0772 42.7385C53.3531 42.7385 52.7466 42.4932 52.2577 42.0025C51.7687 41.5119 51.5234 40.9054 51.5217 40.183V29.9608C51.5217 29.2367 51.767 28.6302 52.2577 28.1412C52.7483 27.6522 53.3548 27.4069 54.0772 27.4052H69.4105C70.1346 27.4052 70.742 27.6505 71.2327 28.1412C71.7233 28.6319 71.9678 29.2384 71.9661 29.9608V40.183C71.9661 40.9071 71.7208 41.5144 71.2301 42.0051C70.7394 42.4958 70.1329 42.7402 69.4105 42.7385H54.0772ZM28.5217 52.9608C27.7976 52.9608 27.1911 52.7154 26.7021 52.2248C26.2131 51.7341 25.9678 51.1276 25.9661 50.4052V29.9608C25.9661 29.2367 26.2114 28.6302 26.7021 28.1412C27.1928 27.6522 27.7993 27.4069 28.5217 27.4052H43.855C44.5791 27.4052 45.1864 27.6505 45.6771 28.1412C46.1678 28.6319 46.4123 29.2384 46.4106 29.9608V50.4052C46.4106 51.1293 46.1652 51.7367 45.6746 52.2273C45.1839 52.718 44.5774 52.9625 43.855 52.9608H28.5217ZM54.0772 73.4052C53.3531 73.4052 52.7466 73.1599 52.2577 72.6692C51.7687 72.1785 51.5234 71.572 51.5217 70.8496V50.4052C51.5217 49.6811 51.767 49.0746 52.2577 48.5857C52.7483 48.0967 53.3548 47.8514 54.0772 47.8497H69.4105C70.1346 47.8497 70.742 48.095 71.2327 48.5857C71.7233 49.0763 71.9678 49.6828 71.9661 50.4052V70.8496C71.9661 71.5737 71.7208 72.1811 71.2301 72.6718C70.7394 73.1624 70.1329 73.4069 69.4105 73.4052H54.0772ZM28.5217 73.4052C27.7976 73.4052 27.1911 73.1599 26.7021 72.6692C26.2131 72.1785 25.9678 71.572 25.9661 70.8496V60.6274C25.9661 59.9034 26.2114 59.2968 26.7021 58.8079C27.1928 58.3189 27.7993 58.0736 28.5217 58.0719H43.855C44.5791 58.0719 45.1864 58.3172 45.6771 58.8079C46.1678 59.2985 46.4123 59.9051 46.4106 60.6274V70.8496C46.4106 71.5737 46.1652 72.1811 45.6746 72.6718C45.1839 73.1624 44.5774 73.4069 43.855 73.4052H28.5217Z" fill="#264877"/>
</svg>
