<svg width="740" height="117" viewBox="0 0 740 117" fill="none" xmlns="http://www.w3.org/2000/svg">
<mask id="path-1-outside-1_3_10" maskUnits="userSpaceOnUse" x="60.667" y="19" width="636" height="79" fill="black">
<rect fill="white" x="60.667" y="19" width="636" height="79"/>
<path d="M65.292 92V24.3594H79.4483V80.3281H109.026V92H65.292ZM145.12 93.1719C138.433 93.1719 132.636 91.75 127.73 88.9062C122.855 86.0625 119.089 82.0312 116.433 76.8125C113.808 71.5625 112.495 65.3594 112.495 58.2031V58.1094C112.495 50.9219 113.823 44.7188 116.48 39.5C119.136 34.2812 122.901 30.2656 127.776 27.4531C132.683 24.6094 138.464 23.1875 145.12 23.1875C151.808 23.1875 157.589 24.6094 162.464 27.4531C167.339 30.2969 171.105 34.3281 173.761 39.5469C176.417 44.7344 177.745 50.9219 177.745 58.1094V58.2031C177.745 65.3594 176.417 71.5625 173.761 76.8125C171.105 82.0312 167.339 86.0625 162.464 88.9062C157.62 91.75 151.839 93.1719 145.12 93.1719ZM145.12 81.1719C148.87 81.1719 152.105 80.2344 154.823 78.3594C157.542 76.4531 159.636 73.7812 161.105 70.3438C162.573 66.9062 163.308 62.8594 163.308 58.2031V58.1094C163.308 53.3906 162.558 49.3281 161.058 45.9219C159.589 42.4844 157.48 39.8438 154.73 38C152.011 36.125 148.808 35.1875 145.12 35.1875C141.433 35.1875 138.214 36.1094 135.464 37.9531C132.745 39.7969 130.636 42.4375 129.136 45.875C127.667 49.2812 126.933 53.3594 126.933 58.1094V58.2031C126.933 62.8906 127.667 66.9531 129.136 70.3906C130.636 73.8281 132.745 76.4844 135.464 78.3594C138.183 80.2344 141.401 81.1719 145.12 81.1719ZM215.245 93.1719C209.464 93.1719 204.448 92.125 200.198 90.0312C195.98 87.9375 192.698 85.0156 190.355 81.2656C188.042 77.4844 186.886 73.0938 186.886 68.0938V24.3594H201.042V66.8281C201.042 69.7344 201.589 72.2656 202.683 74.4219C203.808 76.5469 205.417 78.2031 207.511 79.3906C209.636 80.5781 212.214 81.1719 215.245 81.1719C218.276 81.1719 220.839 80.5781 222.933 79.3906C225.058 78.2031 226.667 76.5469 227.761 74.4219C228.855 72.2656 229.401 69.7344 229.401 66.8281V24.3594H243.558V68.0938C243.558 73.0938 242.401 77.4844 240.089 81.2656C237.808 85.0156 234.542 87.9375 230.292 90.0312C226.073 92.125 221.058 93.1719 215.245 93.1719ZM254.855 92V24.3594H267.23L304.026 77.2812L292.167 68.3281H298.073V24.3594H312.183V92H299.901L263.058 38.75L274.917 47.7031H268.964V92H254.855ZM353.948 93.1719C348.886 93.1719 344.339 92.375 340.308 90.7812C336.308 89.1875 332.901 86.875 330.089 83.8438C327.276 80.7812 325.12 77.0781 323.62 72.7344C322.12 68.3906 321.37 63.4688 321.37 57.9688V57.9219C321.37 50.6719 322.683 44.4688 325.308 39.3125C327.933 34.125 331.651 30.1406 336.464 27.3594C341.308 24.5781 347.026 23.1875 353.62 23.1875C359.058 23.1875 363.855 24.1563 368.011 26.0938C372.167 28 375.542 30.625 378.136 33.9688C380.761 37.3125 382.448 41.1094 383.198 45.3594L383.339 46.0156H369.136L368.948 45.5469C367.823 42.2656 365.948 39.7188 363.323 37.9062C360.698 36.0938 357.48 35.1875 353.667 35.1875C349.948 35.1875 346.745 36.0781 344.058 37.8594C341.401 39.6094 339.355 42.1719 337.917 45.5469C336.511 48.9219 335.808 53 335.808 57.7812V57.8281C335.808 61.4844 336.23 64.7656 337.073 67.6719C337.917 70.5469 339.136 72.9844 340.73 74.9844C342.355 76.9844 344.292 78.5156 346.542 79.5781C348.823 80.6406 351.37 81.1719 354.183 81.1719C357.245 81.1719 359.948 80.6094 362.292 79.4844C364.667 78.3281 366.526 76.7188 367.87 74.6562C369.245 72.5625 369.995 70.125 370.12 67.3438L370.167 66.3594H354.698V55.8125H383.948V63.5938C383.948 68.1875 383.261 72.3125 381.886 75.9688C380.542 79.625 378.573 82.7344 375.98 85.2969C373.417 87.8594 370.276 89.8125 366.558 91.1562C362.839 92.5 358.636 93.1719 353.948 93.1719ZM393.323 92V24.3594H438.136V36.0312H407.48V52.25H436.401V63.3125H407.48V80.3281H438.136V92H393.323ZM495.745 93.1719C489.964 93.1719 484.948 92.125 480.698 90.0312C476.48 87.9375 473.198 85.0156 470.855 81.2656C468.542 77.4844 467.386 73.0938 467.386 68.0938V24.3594H481.542V66.8281C481.542 69.7344 482.089 72.2656 483.183 74.4219C484.308 76.5469 485.917 78.2031 488.011 79.3906C490.136 80.5781 492.714 81.1719 495.745 81.1719C498.776 81.1719 501.339 80.5781 503.433 79.3906C505.558 78.2031 507.167 76.5469 508.261 74.4219C509.355 72.2656 509.901 69.7344 509.901 66.8281V24.3594H524.058V68.0938C524.058 73.0938 522.901 77.4844 520.589 81.2656C518.308 85.0156 515.042 87.9375 510.792 90.0312C506.573 92.125 501.558 93.1719 495.745 93.1719ZM535.355 92V24.3594H579.651V36.0312H549.511V54.1719H577.026V65.375H549.511V92H535.355ZM595.167 70.6719V59.6094H611.761C615.823 59.6094 618.98 58.5781 621.23 56.5156C623.511 54.4219 624.651 51.4531 624.651 47.6094V47.5156C624.651 43.6719 623.511 40.7188 621.23 38.6562C618.98 36.5938 615.823 35.5625 611.761 35.5625H595.167V24.3594H615.23C619.98 24.3594 624.136 25.3281 627.698 27.2656C631.261 29.1719 634.026 31.8594 635.995 35.3281C637.995 38.7969 638.995 42.8438 638.995 47.4688V47.5625C638.995 52.2188 637.995 56.2812 635.995 59.75C634.026 63.2188 631.261 65.9062 627.698 67.8125C624.136 69.7188 619.98 70.6719 615.23 70.6719H595.167ZM588.042 92V24.3594H602.198V92H588.042ZM647.386 92V24.3594H692.198V36.0312H661.542V52.25H690.464V63.3125H661.542V80.3281H692.198V92H647.386Z"/>
</mask>
<path d="M65.292 92V24.3594H79.4483V80.3281H109.026V92H65.292ZM145.12 93.1719C138.433 93.1719 132.636 91.75 127.73 88.9062C122.855 86.0625 119.089 82.0312 116.433 76.8125C113.808 71.5625 112.495 65.3594 112.495 58.2031V58.1094C112.495 50.9219 113.823 44.7188 116.48 39.5C119.136 34.2812 122.901 30.2656 127.776 27.4531C132.683 24.6094 138.464 23.1875 145.12 23.1875C151.808 23.1875 157.589 24.6094 162.464 27.4531C167.339 30.2969 171.105 34.3281 173.761 39.5469C176.417 44.7344 177.745 50.9219 177.745 58.1094V58.2031C177.745 65.3594 176.417 71.5625 173.761 76.8125C171.105 82.0312 167.339 86.0625 162.464 88.9062C157.62 91.75 151.839 93.1719 145.12 93.1719ZM145.12 81.1719C148.87 81.1719 152.105 80.2344 154.823 78.3594C157.542 76.4531 159.636 73.7812 161.105 70.3438C162.573 66.9062 163.308 62.8594 163.308 58.2031V58.1094C163.308 53.3906 162.558 49.3281 161.058 45.9219C159.589 42.4844 157.48 39.8438 154.73 38C152.011 36.125 148.808 35.1875 145.12 35.1875C141.433 35.1875 138.214 36.1094 135.464 37.9531C132.745 39.7969 130.636 42.4375 129.136 45.875C127.667 49.2812 126.933 53.3594 126.933 58.1094V58.2031C126.933 62.8906 127.667 66.9531 129.136 70.3906C130.636 73.8281 132.745 76.4844 135.464 78.3594C138.183 80.2344 141.401 81.1719 145.12 81.1719ZM215.245 93.1719C209.464 93.1719 204.448 92.125 200.198 90.0312C195.98 87.9375 192.698 85.0156 190.355 81.2656C188.042 77.4844 186.886 73.0938 186.886 68.0938V24.3594H201.042V66.8281C201.042 69.7344 201.589 72.2656 202.683 74.4219C203.808 76.5469 205.417 78.2031 207.511 79.3906C209.636 80.5781 212.214 81.1719 215.245 81.1719C218.276 81.1719 220.839 80.5781 222.933 79.3906C225.058 78.2031 226.667 76.5469 227.761 74.4219C228.855 72.2656 229.401 69.7344 229.401 66.8281V24.3594H243.558V68.0938C243.558 73.0938 242.401 77.4844 240.089 81.2656C237.808 85.0156 234.542 87.9375 230.292 90.0312C226.073 92.125 221.058 93.1719 215.245 93.1719ZM254.855 92V24.3594H267.23L304.026 77.2812L292.167 68.3281H298.073V24.3594H312.183V92H299.901L263.058 38.75L274.917 47.7031H268.964V92H254.855ZM353.948 93.1719C348.886 93.1719 344.339 92.375 340.308 90.7812C336.308 89.1875 332.901 86.875 330.089 83.8438C327.276 80.7812 325.12 77.0781 323.62 72.7344C322.12 68.3906 321.37 63.4688 321.37 57.9688V57.9219C321.37 50.6719 322.683 44.4688 325.308 39.3125C327.933 34.125 331.651 30.1406 336.464 27.3594C341.308 24.5781 347.026 23.1875 353.62 23.1875C359.058 23.1875 363.855 24.1563 368.011 26.0938C372.167 28 375.542 30.625 378.136 33.9688C380.761 37.3125 382.448 41.1094 383.198 45.3594L383.339 46.0156H369.136L368.948 45.5469C367.823 42.2656 365.948 39.7188 363.323 37.9062C360.698 36.0938 357.48 35.1875 353.667 35.1875C349.948 35.1875 346.745 36.0781 344.058 37.8594C341.401 39.6094 339.355 42.1719 337.917 45.5469C336.511 48.9219 335.808 53 335.808 57.7812V57.8281C335.808 61.4844 336.23 64.7656 337.073 67.6719C337.917 70.5469 339.136 72.9844 340.73 74.9844C342.355 76.9844 344.292 78.5156 346.542 79.5781C348.823 80.6406 351.37 81.1719 354.183 81.1719C357.245 81.1719 359.948 80.6094 362.292 79.4844C364.667 78.3281 366.526 76.7188 367.87 74.6562C369.245 72.5625 369.995 70.125 370.12 67.3438L370.167 66.3594H354.698V55.8125H383.948V63.5938C383.948 68.1875 383.261 72.3125 381.886 75.9688C380.542 79.625 378.573 82.7344 375.98 85.2969C373.417 87.8594 370.276 89.8125 366.558 91.1562C362.839 92.5 358.636 93.1719 353.948 93.1719ZM393.323 92V24.3594H438.136V36.0312H407.48V52.25H436.401V63.3125H407.48V80.3281H438.136V92H393.323ZM495.745 93.1719C489.964 93.1719 484.948 92.125 480.698 90.0312C476.48 87.9375 473.198 85.0156 470.855 81.2656C468.542 77.4844 467.386 73.0938 467.386 68.0938V24.3594H481.542V66.8281C481.542 69.7344 482.089 72.2656 483.183 74.4219C484.308 76.5469 485.917 78.2031 488.011 79.3906C490.136 80.5781 492.714 81.1719 495.745 81.1719C498.776 81.1719 501.339 80.5781 503.433 79.3906C505.558 78.2031 507.167 76.5469 508.261 74.4219C509.355 72.2656 509.901 69.7344 509.901 66.8281V24.3594H524.058V68.0938C524.058 73.0938 522.901 77.4844 520.589 81.2656C518.308 85.0156 515.042 87.9375 510.792 90.0312C506.573 92.125 501.558 93.1719 495.745 93.1719ZM535.355 92V24.3594H579.651V36.0312H549.511V54.1719H577.026V65.375H549.511V92H535.355ZM595.167 70.6719V59.6094H611.761C615.823 59.6094 618.98 58.5781 621.23 56.5156C623.511 54.4219 624.651 51.4531 624.651 47.6094V47.5156C624.651 43.6719 623.511 40.7188 621.23 38.6562C618.98 36.5938 615.823 35.5625 611.761 35.5625H595.167V24.3594H615.23C619.98 24.3594 624.136 25.3281 627.698 27.2656C631.261 29.1719 634.026 31.8594 635.995 35.3281C637.995 38.7969 638.995 42.8438 638.995 47.4688V47.5625C638.995 52.2188 637.995 56.2812 635.995 59.75C634.026 63.2188 631.261 65.9062 627.698 67.8125C624.136 69.7188 619.98 70.6719 615.23 70.6719H595.167ZM588.042 92V24.3594H602.198V92H588.042ZM647.386 92V24.3594H692.198V36.0312H661.542V52.25H690.464V63.3125H661.542V80.3281H692.198V92H647.386Z" fill="white"/>
<path d="M65.292 92H61.292V96H65.292V92ZM65.292 24.3594V20.3594H61.292V24.3594H65.292ZM79.4483 24.3594H83.4483V20.3594H79.4483V24.3594ZM79.4483 80.3281H75.4483V84.3281H79.4483V80.3281ZM109.026 80.3281H113.026V76.3281H109.026V80.3281ZM109.026 92V96H113.026V92H109.026ZM65.292 92H69.292V24.3594H65.292H61.292V92H65.292ZM65.292 24.3594V28.3594H79.4483V24.3594V20.3594H65.292V24.3594ZM79.4483 24.3594H75.4483V80.3281H79.4483H83.4483V24.3594H79.4483ZM79.4483 80.3281V84.3281H109.026V80.3281V76.3281H79.4483V80.3281ZM109.026 80.3281H105.026V92H109.026H113.026V80.3281H109.026ZM109.026 92V88H65.292V92V96H109.026V92ZM127.73 88.9062L125.714 92.3614L125.724 92.367L127.73 88.9062ZM116.433 76.8125L112.855 78.6014L112.861 78.6142L112.868 78.6269L116.433 76.8125ZM127.776 27.4531L129.775 30.9179L129.782 30.9138L127.776 27.4531ZM173.761 39.5469L170.196 41.3613L170.2 41.37L173.761 39.5469ZM173.761 76.8125L177.326 78.6269L177.33 78.6183L173.761 76.8125ZM162.464 88.9062L160.448 85.4511L160.439 85.4568L162.464 88.9062ZM154.823 78.3594L157.094 81.6522L157.107 81.6434L157.12 81.6345L154.823 78.3594ZM161.058 45.9219L157.379 47.4935L157.388 47.5138L157.397 47.534L161.058 45.9219ZM154.73 38L152.459 41.2929L152.48 41.3078L152.502 41.3224L154.73 38ZM135.464 37.9531L133.236 34.6307L133.228 34.6366L133.219 34.6426L135.464 37.9531ZM129.136 45.875L125.47 44.2752L125.466 44.2832L125.463 44.2912L129.136 45.875ZM129.136 70.3906L125.457 71.9623L125.464 71.9764L125.47 71.9904L129.136 70.3906ZM145.12 93.1719V89.1719C139.01 89.1719 133.931 87.8773 129.735 85.4455L127.73 88.9062L125.724 92.367C131.341 95.6227 137.855 97.1719 145.12 97.1719V93.1719ZM127.73 88.9062L129.745 85.4511C125.559 83.0093 122.319 79.5597 119.997 74.9981L116.433 76.8125L112.868 78.6269C115.859 84.5028 120.15 89.1157 125.714 92.3614L127.73 88.9062ZM116.433 76.8125L120.01 75.0236C117.717 70.4377 116.495 64.8724 116.495 58.2031H112.495H108.495C108.495 65.8463 109.898 72.6873 112.855 78.6014L116.433 76.8125ZM112.495 58.2031H116.495V58.1094H112.495H108.495V58.2031H112.495ZM112.495 58.1094H116.495C116.495 51.4114 117.732 45.8576 120.044 41.3144L116.48 39.5L112.915 37.6856C109.915 43.5799 108.495 50.4323 108.495 58.1094H112.495ZM116.48 39.5L120.044 41.3144C122.364 36.7563 125.599 33.3272 129.775 30.9179L127.776 27.4531L125.778 23.9884C120.204 27.204 115.907 31.8062 112.915 37.6856L116.48 39.5ZM127.776 27.4531L129.782 30.9138C133.981 28.4805 139.045 27.1875 145.12 27.1875V23.1875V19.1875C137.883 19.1875 131.385 20.7383 125.771 23.9924L127.776 27.4531ZM145.12 23.1875V27.1875C151.231 27.1875 156.29 28.4823 160.448 30.9082L162.464 27.4531L164.479 23.998C158.888 20.7364 152.384 19.1875 145.12 19.1875V23.1875ZM162.464 27.4531L160.448 30.9082C164.634 33.3501 167.874 36.7997 170.196 41.3613L173.761 39.5469L177.326 37.7325C174.335 31.8566 170.043 27.2437 164.479 23.998L162.464 27.4531ZM173.761 39.5469L170.2 41.37C172.508 45.8767 173.745 51.4105 173.745 58.1094H177.745H181.745C181.745 50.4333 180.326 43.5921 177.321 37.7238L173.761 39.5469ZM177.745 58.1094H173.745V58.2031H177.745H181.745V58.1094H177.745ZM177.745 58.2031H173.745C173.745 64.8658 172.51 70.4248 170.192 75.0067L173.761 76.8125L177.33 78.6183C180.324 72.7002 181.745 65.8529 181.745 58.2031H177.745ZM173.761 76.8125L170.196 74.9981C167.874 79.5597 164.634 83.0093 160.448 85.4511L162.464 88.9062L164.479 92.3614C170.043 89.1157 174.335 84.5028 177.326 78.6269L173.761 76.8125ZM162.464 88.9062L160.439 85.4568C156.32 87.8752 151.267 89.1719 145.12 89.1719V93.1719V97.1719C152.411 97.1719 158.921 95.6248 164.489 92.3557L162.464 88.9062ZM145.12 81.1719V85.1719C149.568 85.1719 153.62 84.0484 157.094 81.6522L154.823 78.3594L152.552 75.0665C150.589 76.4203 148.173 77.1719 145.12 77.1719V81.1719ZM154.823 78.3594L157.12 81.6345C160.523 79.2482 163.059 75.9498 164.783 71.9154L161.105 70.3438L157.426 68.7721C156.213 71.6127 154.561 73.6581 152.527 75.0842L154.823 78.3594ZM161.105 70.3438L164.783 71.9154C166.509 67.8752 167.308 63.2711 167.308 58.2031H163.308H159.308C159.308 62.4477 158.637 65.9373 157.426 68.7721L161.105 70.3438ZM163.308 58.2031H167.308V58.1094H163.308H159.308V58.2031H163.308ZM163.308 58.1094H167.308C167.308 52.979 166.493 48.3407 164.718 44.3098L161.058 45.9219L157.397 47.534C158.622 50.3156 159.308 53.8023 159.308 58.1094H163.308ZM161.058 45.9219L164.736 44.3502C163.004 40.2958 160.43 37.0063 156.957 34.6776L154.73 38L152.502 41.3224C154.529 42.6812 156.174 44.673 157.379 47.4935L161.058 45.9219ZM154.73 38L157 34.7071C153.537 32.3188 149.52 31.1875 145.12 31.1875V35.1875V39.1875C148.095 39.1875 150.484 39.9312 152.459 41.2929L154.73 38ZM145.12 35.1875V31.1875C140.733 31.1875 136.719 32.2958 133.236 34.6307L135.464 37.9531L137.691 41.2755C139.709 39.923 142.132 39.1875 145.12 39.1875V35.1875ZM135.464 37.9531L133.219 34.6426C129.789 36.9685 127.228 40.2453 125.47 44.2752L129.136 45.875L132.802 47.4748C134.043 44.6297 135.701 42.6253 137.709 41.2637L135.464 37.9531ZM129.136 45.875L125.463 44.2912C123.727 48.3167 122.933 52.9614 122.933 58.1094H126.933H130.933C130.933 53.7573 131.607 50.2458 132.809 47.4588L129.136 45.875ZM126.933 58.1094H122.933V58.2031H126.933H130.933V58.1094H126.933ZM126.933 58.2031H122.933C122.933 63.2983 123.73 67.9191 125.457 71.9623L129.136 70.3906L132.814 68.819C131.604 65.9872 130.933 62.483 130.933 58.2031H126.933ZM129.136 70.3906L125.47 71.9904C127.226 76.0163 129.78 79.2987 133.193 81.6522L135.464 78.3594L137.735 75.0665C135.71 73.67 134.045 71.6399 132.802 68.7908L129.136 70.3906ZM135.464 78.3594L133.193 81.6522C136.662 84.0445 140.696 85.1719 145.12 85.1719V81.1719V77.1719C142.106 77.1719 139.703 76.4242 137.735 75.0665L135.464 78.3594ZM200.198 90.0312L198.42 93.6143L198.431 93.6195L200.198 90.0312ZM190.355 81.2656L186.942 83.3526L186.952 83.3691L186.963 83.3856L190.355 81.2656ZM186.886 24.3594V20.3594H182.886V24.3594H186.886ZM201.042 24.3594H205.042V20.3594H201.042V24.3594ZM202.683 74.4219L199.115 76.2314L199.131 76.2625L199.148 76.2934L202.683 74.4219ZM207.511 79.3906L205.537 82.87L205.548 82.8762L205.56 82.8824L207.511 79.3906ZM222.933 79.3906L220.981 75.8988L220.97 75.905L220.959 75.9113L222.933 79.3906ZM227.761 74.4219L231.317 76.2524L231.323 76.2419L231.328 76.2314L227.761 74.4219ZM229.401 24.3594V20.3594H225.401V24.3594H229.401ZM243.558 24.3594H247.558V20.3594H243.558V24.3594ZM240.089 81.2656L236.676 79.1787L236.672 79.1867L240.089 81.2656ZM230.292 90.0312L228.524 86.443L228.514 86.4482L230.292 90.0312ZM215.245 93.1719V89.1719C209.944 89.1719 205.558 88.2128 201.966 86.443L200.198 90.0312L198.431 93.6195C203.338 96.0372 208.984 97.1719 215.245 97.1719V93.1719ZM200.198 90.0312L201.977 86.4482C198.376 84.6612 195.672 82.2268 193.747 79.1456L190.355 81.2656L186.963 83.3856C189.724 87.8044 193.583 91.2138 198.42 93.6143L200.198 90.0312ZM190.355 81.2656L193.767 79.1787C191.886 76.1034 190.886 72.454 190.886 68.0938H186.886H182.886C182.886 73.7335 184.198 78.8653 186.942 83.3526L190.355 81.2656ZM186.886 68.0938H190.886V24.3594H186.886H182.886V68.0938H186.886ZM186.886 24.3594V28.3594H201.042V24.3594V20.3594H186.886V24.3594ZM201.042 24.3594H197.042V66.8281H201.042H205.042V24.3594H201.042ZM201.042 66.8281H197.042C197.042 70.2374 197.685 73.412 199.115 76.2314L202.683 74.4219L206.25 72.6124C205.493 71.1192 205.042 69.2314 205.042 66.8281H201.042ZM202.683 74.4219L199.148 76.2934C200.63 79.093 202.781 81.3068 205.537 82.87L207.511 79.3906L209.484 75.9113C208.053 75.0995 206.986 74.0007 206.218 72.5503L202.683 74.4219ZM207.511 79.3906L205.56 82.8824C208.41 84.4754 211.696 85.1719 215.245 85.1719V81.1719V77.1719C212.732 77.1719 210.861 76.6808 209.462 75.8988L207.511 79.3906ZM215.245 81.1719V85.1719C218.792 85.1719 222.074 84.4764 224.906 82.87L222.933 79.3906L220.959 75.9113C219.604 76.6799 217.761 77.1719 215.245 77.1719V81.1719ZM222.933 79.3906L224.884 82.8824C227.682 81.3187 229.856 79.0907 231.317 76.2524L227.761 74.4219L224.204 72.5913C223.478 74.0031 222.433 75.0876 220.981 75.8988L222.933 79.3906ZM227.761 74.4219L231.328 76.2314C232.758 73.412 233.401 70.2374 233.401 66.8281H229.401H225.401C225.401 69.2314 224.951 71.1192 224.193 72.6124L227.761 74.4219ZM229.401 66.8281H233.401V24.3594H229.401H225.401V66.8281H229.401ZM229.401 24.3594V28.3594H243.558V24.3594V20.3594H229.401V24.3594ZM243.558 24.3594H239.558V68.0938H243.558H247.558V24.3594H243.558ZM243.558 68.0938H239.558C239.558 72.454 238.557 76.1034 236.676 79.1787L240.089 81.2656L243.501 83.3526C246.246 78.8653 247.558 73.7335 247.558 68.0938H243.558ZM240.089 81.2656L236.672 79.1867C234.817 82.2353 232.149 84.6576 228.524 86.443L230.292 90.0312L232.06 93.6195C236.936 91.2174 240.798 87.7959 243.506 83.3445L240.089 81.2656ZM230.292 90.0312L228.514 86.4482C224.962 88.211 220.582 89.1719 215.245 89.1719V93.1719V97.1719C221.533 97.1719 227.185 96.039 232.07 93.6143L230.292 90.0312ZM254.855 92H250.855V96H254.855V92ZM254.855 24.3594V20.3594H250.855V24.3594H254.855ZM267.23 24.3594L270.514 22.0759L269.32 20.3594H267.23V24.3594ZM304.026 77.2812L301.616 80.4737L307.311 74.9978L304.026 77.2812ZM292.167 68.3281V64.3281H280.23L289.757 71.5205L292.167 68.3281ZM298.073 68.3281V72.3281H302.073V68.3281H298.073ZM298.073 24.3594V20.3594H294.073V24.3594H298.073ZM312.183 24.3594H316.183V20.3594H312.183V24.3594ZM312.183 92V96H316.183V92H312.183ZM299.901 92L296.612 94.2759L297.805 96H299.901V92ZM263.058 38.75L265.468 35.5576L259.768 41.0259L263.058 38.75ZM274.917 47.7031V51.7031H286.854L277.327 44.5107L274.917 47.7031ZM268.964 47.7031V43.7031H264.964V47.7031H268.964ZM268.964 92V96H272.964V92H268.964ZM254.855 92H258.855V24.3594H254.855H250.855V92H254.855ZM254.855 24.3594V28.3594H267.23V24.3594V20.3594H254.855V24.3594ZM267.23 24.3594L263.945 26.6429L300.742 79.5647L304.026 77.2812L307.311 74.9978L270.514 22.0759L267.23 24.3594ZM304.026 77.2812L306.436 74.0888L294.577 65.1357L292.167 68.3281L289.757 71.5205L301.616 80.4737L304.026 77.2812ZM292.167 68.3281V72.3281H298.073V68.3281V64.3281H292.167V68.3281ZM298.073 68.3281H302.073V24.3594H298.073H294.073V68.3281H298.073ZM298.073 24.3594V28.3594H312.183V24.3594V20.3594H298.073V24.3594ZM312.183 24.3594H308.183V92H312.183H316.183V24.3594H312.183ZM312.183 92V88H299.901V92V96H312.183V92ZM299.901 92L303.191 89.7241L266.347 36.4741L263.058 38.75L259.768 41.0259L296.612 94.2759L299.901 92ZM263.058 38.75L260.648 41.9424L272.507 50.8955L274.917 47.7031L277.327 44.5107L265.468 35.5576L263.058 38.75ZM274.917 47.7031V43.7031H268.964V47.7031V51.7031H274.917V47.7031ZM268.964 47.7031H264.964V92H268.964H272.964V47.7031H268.964ZM268.964 92V88H254.855V92V96H268.964V92ZM340.308 90.7812L338.827 94.4972L338.837 94.5011L340.308 90.7812ZM330.089 83.8438L327.143 86.5494L327.15 86.5569L327.157 86.5644L330.089 83.8438ZM325.308 39.3125L328.872 41.1272L328.877 41.1185L325.308 39.3125ZM336.464 27.3594L334.472 23.8905L334.462 23.8961L336.464 27.3594ZM368.011 26.0938L366.321 29.7192L366.332 29.7244L366.343 29.7296L368.011 26.0938ZM378.136 33.9688L374.975 36.4204L374.982 36.4296L374.989 36.4387L378.136 33.9688ZM383.198 45.3594L379.259 46.0545L379.272 46.1263L379.287 46.1975L383.198 45.3594ZM383.339 46.0156V50.0156H388.287L387.25 45.1775L383.339 46.0156ZM369.136 46.0156L365.422 47.5012L366.428 50.0156H369.136V46.0156ZM368.948 45.5469L365.165 46.8442L365.197 46.9392L365.234 47.0324L368.948 45.5469ZM344.058 37.8594L346.258 41.1996L346.268 41.1935L344.058 37.8594ZM337.917 45.5469L334.237 43.9794L334.231 43.9939L334.225 44.0084L337.917 45.5469ZM337.073 67.6719L333.232 68.7871L333.235 68.7983L337.073 67.6719ZM340.73 74.9844L337.601 77.4772L337.613 77.492L337.625 77.5067L340.73 74.9844ZM346.542 79.5781L344.834 83.1951L344.844 83.1996L344.853 83.2041L346.542 79.5781ZM362.292 79.4844L364.023 83.0905L364.033 83.0857L364.043 83.0808L362.292 79.4844ZM367.87 74.6562L364.527 72.4605L364.523 72.4666L364.519 72.4727L367.87 74.6562ZM370.12 67.3438L366.125 67.1535L366.124 67.1642L370.12 67.3438ZM370.167 66.3594L374.163 66.5496L374.362 62.3594H370.167V66.3594ZM354.698 66.3594H350.698V70.3594H354.698V66.3594ZM354.698 55.8125V51.8125H350.698V55.8125H354.698ZM383.948 55.8125H387.948V51.8125H383.948V55.8125ZM381.886 75.9688L378.142 74.5608L378.136 74.5748L378.131 74.5889L381.886 75.9688ZM375.98 85.2969L373.168 82.4514L373.16 82.4599L373.151 82.4684L375.98 85.2969ZM353.948 93.1719V89.1719C349.306 89.1719 345.27 88.4417 341.778 87.0614L340.308 90.7812L338.837 94.5011C343.408 96.3083 348.465 97.1719 353.948 97.1719V93.1719ZM340.308 90.7812L341.788 87.0653C338.317 85.6821 335.413 83.7008 333.021 81.1231L330.089 83.8438L327.157 86.5644C330.39 90.0492 334.299 92.6929 338.827 94.4972L340.308 90.7812ZM330.089 83.8438L333.035 81.1381C330.631 78.5207 328.741 75.3084 327.401 71.4287L323.62 72.7344L319.839 74.04C321.5 78.8479 323.922 83.0418 327.143 86.5494L330.089 83.8438ZM323.62 72.7344L327.401 71.4287C326.071 67.5784 325.37 63.1093 325.37 57.9688H321.37H317.37C317.37 63.8282 318.169 69.2028 319.839 74.04L323.62 72.7344ZM321.37 57.9688H325.37V57.9219H321.37H317.37V57.9688H321.37ZM321.37 57.9219H325.37C325.37 51.1466 326.597 45.5971 328.872 41.1272L325.308 39.3125L321.743 37.4978C318.769 43.3404 317.37 50.1971 317.37 57.9219H321.37ZM325.308 39.3125L328.877 41.1185C331.168 36.5903 334.357 33.1969 338.465 30.8226L336.464 27.3594L334.462 23.8961C328.946 27.0843 324.697 31.6597 321.739 37.5065L325.308 39.3125ZM336.464 27.3594L338.456 30.8282C342.592 28.4531 347.598 27.1875 353.62 27.1875V23.1875V19.1875C346.454 19.1875 340.023 20.7031 334.472 23.8905L336.464 27.3594ZM353.62 23.1875V27.1875C358.581 27.1875 362.783 28.07 366.321 29.7192L368.011 26.0938L369.701 22.4683C364.926 20.2425 359.534 19.1875 353.62 19.1875V23.1875ZM368.011 26.0938L366.343 29.7296C369.962 31.3893 372.808 33.6263 374.975 36.4204L378.136 33.9688L381.296 31.5171C378.276 27.6237 374.372 24.6107 369.678 22.4579L368.011 26.0938ZM378.136 33.9688L374.989 36.4387C377.202 39.2569 378.622 42.4421 379.259 46.0545L383.198 45.3594L387.137 44.6642C386.275 39.7767 384.32 35.3681 381.282 31.4988L378.136 33.9688ZM383.198 45.3594L379.287 46.1975L379.428 46.8537L383.339 46.0156L387.25 45.1775L387.11 44.5213L383.198 45.3594ZM383.339 46.0156V42.0156H369.136V46.0156V50.0156H383.339V46.0156ZM369.136 46.0156L372.85 44.5301L372.662 44.0613L368.948 45.5469L365.234 47.0324L365.422 47.5012L369.136 46.0156ZM368.948 45.5469L372.732 44.2496C371.355 40.2338 368.987 36.9563 365.596 34.6147L363.323 37.9062L361.051 41.1978C362.909 42.4812 364.291 44.2974 365.165 46.8442L368.948 45.5469ZM363.323 37.9062L365.596 34.6147C362.181 32.2568 358.13 31.1875 353.667 31.1875V35.1875V39.1875C356.829 39.1875 359.215 39.9307 361.051 41.1978L363.323 37.9062ZM353.667 35.1875V31.1875C349.286 31.1875 345.287 32.246 341.848 34.5252L344.058 37.8594L346.268 41.1935C348.204 39.9102 350.611 39.1875 353.667 39.1875V35.1875ZM344.058 37.8594L341.857 34.5191C338.448 36.7652 335.934 39.9948 334.237 43.9794L337.917 45.5469L341.597 47.1143C342.775 44.349 344.355 42.4536 346.258 41.1996L344.058 37.8594ZM337.917 45.5469L334.225 44.0084C332.563 47.9958 331.808 52.6265 331.808 57.7812H335.808H339.808C339.808 53.3735 340.458 49.8479 341.609 47.0853L337.917 45.5469ZM335.808 57.7812H331.808V57.8281H335.808H339.808V57.7812H335.808ZM335.808 57.8281H331.808C331.808 61.7861 332.264 65.4524 333.232 68.7871L337.073 67.6719L340.915 66.5566C340.195 64.0789 339.808 61.1826 339.808 57.8281H335.808ZM337.073 67.6719L333.235 68.7983C334.2 72.0864 335.634 75.0087 337.601 77.4772L340.73 74.9844L343.858 72.4916C342.637 70.96 341.634 69.0073 340.911 66.5455L337.073 67.6719ZM340.73 74.9844L337.625 77.5067C339.614 79.9545 342.023 81.8677 344.834 83.1951L346.542 79.5781L348.25 75.9611C346.561 75.1636 345.095 74.0142 343.834 72.462L340.73 74.9844ZM346.542 79.5781L344.853 83.2041C347.723 84.5406 350.856 85.1719 354.183 85.1719V81.1719V77.1719C351.885 77.1719 349.924 76.7407 348.231 75.9521L346.542 79.5781ZM354.183 81.1719V85.1719C357.739 85.1719 361.051 84.517 364.023 83.0905L362.292 79.4844L360.561 75.8783C358.846 76.7018 356.752 77.1719 354.183 77.1719V81.1719ZM362.292 79.4844L364.043 83.0808C367.02 81.6314 369.453 79.554 371.222 76.8398L367.87 74.6562L364.519 72.4727C363.6 73.8835 362.314 75.0249 360.541 75.8879L362.292 79.4844ZM367.87 74.6562L371.214 76.852C373.026 74.0918 373.963 70.9408 374.116 67.5233L370.12 67.3438L366.124 67.1642C366.028 69.3092 365.464 71.0332 364.527 72.4605L367.87 74.6562ZM370.12 67.3438L374.116 67.534L374.163 66.5496L370.167 66.3594L366.172 66.1691L366.125 67.1535L370.12 67.3438ZM370.167 66.3594V62.3594H354.698V66.3594V70.3594H370.167V66.3594ZM354.698 66.3594H358.698V55.8125H354.698H350.698V66.3594H354.698ZM354.698 55.8125V59.8125H383.948V55.8125V51.8125H354.698V55.8125ZM383.948 55.8125H379.948V63.5938H383.948H387.948V55.8125H383.948ZM383.948 63.5938H379.948C379.948 67.7895 379.321 71.4262 378.142 74.5608L381.886 75.9688L385.63 77.3767C387.201 73.1988 387.948 68.5855 387.948 63.5938H383.948ZM381.886 75.9688L378.131 74.5889C376.976 77.7317 375.316 80.33 373.168 82.4514L375.98 85.2969L378.791 88.1424C381.831 85.1387 384.108 81.5183 385.64 77.3486L381.886 75.9688ZM375.98 85.2969L373.151 82.4684C371.041 84.579 368.416 86.2317 365.198 87.3943L366.558 91.1562L367.917 94.9182C372.137 93.3933 375.794 91.1397 378.808 88.1253L375.98 85.2969ZM366.558 91.1562L365.198 87.3943C361.988 88.5544 358.256 89.1719 353.948 89.1719V93.1719V97.1719C359.015 97.1719 363.69 96.4456 367.917 94.9182L366.558 91.1562ZM393.323 92H389.323V96H393.323V92ZM393.323 24.3594V20.3594H389.323V24.3594H393.323ZM438.136 24.3594H442.136V20.3594H438.136V24.3594ZM438.136 36.0312V40.0312H442.136V36.0312H438.136ZM407.48 36.0312V32.0312H403.48V36.0312H407.48ZM407.48 52.25H403.48V56.25H407.48V52.25ZM436.401 52.25H440.401V48.25H436.401V52.25ZM436.401 63.3125V67.3125H440.401V63.3125H436.401ZM407.48 63.3125V59.3125H403.48V63.3125H407.48ZM407.48 80.3281H403.48V84.3281H407.48V80.3281ZM438.136 80.3281H442.136V76.3281H438.136V80.3281ZM438.136 92V96H442.136V92H438.136ZM393.323 92H397.323V24.3594H393.323H389.323V92H393.323ZM393.323 24.3594V28.3594H438.136V24.3594V20.3594H393.323V24.3594ZM438.136 24.3594H434.136V36.0312H438.136H442.136V24.3594H438.136ZM438.136 36.0312V32.0312H407.48V36.0312V40.0312H438.136V36.0312ZM407.48 36.0312H403.48V52.25H407.48H411.48V36.0312H407.48ZM407.48 52.25V56.25H436.401V52.25V48.25H407.48V52.25ZM436.401 52.25H432.401V63.3125H436.401H440.401V52.25H436.401ZM436.401 63.3125V59.3125H407.48V63.3125V67.3125H436.401V63.3125ZM407.48 63.3125H403.48V80.3281H407.48H411.48V63.3125H407.48ZM407.48 80.3281V84.3281H438.136V80.3281V76.3281H407.48V80.3281ZM438.136 80.3281H434.136V92H438.136H442.136V80.3281H438.136ZM438.136 92V88H393.323V92V96H438.136V92ZM480.698 90.0312L478.92 93.6143L478.931 93.6195L480.698 90.0312ZM470.855 81.2656L467.442 83.3526L467.452 83.3691L467.463 83.3856L470.855 81.2656ZM467.386 24.3594V20.3594H463.386V24.3594H467.386ZM481.542 24.3594H485.542V20.3594H481.542V24.3594ZM483.183 74.4219L479.615 76.2314L479.631 76.2625L479.648 76.2934L483.183 74.4219ZM488.011 79.3906L486.037 82.87L486.048 82.8762L486.059 82.8824L488.011 79.3906ZM503.433 79.3906L501.481 75.8988L501.47 75.905L501.459 75.9113L503.433 79.3906ZM508.261 74.4219L511.817 76.2524L511.823 76.2419L511.828 76.2314L508.261 74.4219ZM509.901 24.3594V20.3594H505.901V24.3594H509.901ZM524.058 24.3594H528.058V20.3594H524.058V24.3594ZM520.589 81.2656L517.176 79.1787L517.172 79.1867L520.589 81.2656ZM510.792 90.0312L509.024 86.443L509.014 86.4482L510.792 90.0312ZM495.745 93.1719V89.1719C490.444 89.1719 486.058 88.2128 482.466 86.443L480.698 90.0312L478.931 93.6195C483.838 96.0372 489.484 97.1719 495.745 97.1719V93.1719ZM480.698 90.0312L482.477 86.4482C478.876 84.6612 476.172 82.2268 474.247 79.1456L470.855 81.2656L467.463 83.3856C470.224 87.8044 474.083 91.2138 478.92 93.6143L480.698 90.0312ZM470.855 81.2656L474.267 79.1787C472.386 76.1034 471.386 72.454 471.386 68.0938H467.386H463.386C463.386 73.7335 464.698 78.8653 467.442 83.3526L470.855 81.2656ZM467.386 68.0938H471.386V24.3594H467.386H463.386V68.0938H467.386ZM467.386 24.3594V28.3594H481.542V24.3594V20.3594H467.386V24.3594ZM481.542 24.3594H477.542V66.8281H481.542H485.542V24.3594H481.542ZM481.542 66.8281H477.542C477.542 70.2374 478.185 73.412 479.615 76.2314L483.183 74.4219L486.75 72.6124C485.993 71.1192 485.542 69.2314 485.542 66.8281H481.542ZM483.183 74.4219L479.648 76.2934C481.13 79.093 483.281 81.3068 486.037 82.87L488.011 79.3906L489.984 75.9113C488.553 75.0995 487.486 74.0007 486.718 72.5503L483.183 74.4219ZM488.011 79.3906L486.059 82.8824C488.91 84.4754 492.196 85.1719 495.745 85.1719V81.1719V77.1719C493.232 77.1719 491.361 76.6808 489.962 75.8988L488.011 79.3906ZM495.745 81.1719V85.1719C499.292 85.1719 502.574 84.4764 505.406 82.87L503.433 79.3906L501.459 75.9113C500.104 76.6799 498.261 77.1719 495.745 77.1719V81.1719ZM503.433 79.3906L505.384 82.8824C508.182 81.3187 510.356 79.0907 511.817 76.2524L508.261 74.4219L504.704 72.5913C503.978 74.0031 502.933 75.0876 501.481 75.8988L503.433 79.3906ZM508.261 74.4219L511.828 76.2314C513.258 73.412 513.901 70.2374 513.901 66.8281H509.901H505.901C505.901 69.2314 505.451 71.1192 504.693 72.6124L508.261 74.4219ZM509.901 66.8281H513.901V24.3594H509.901H505.901V66.8281H509.901ZM509.901 24.3594V28.3594H524.058V24.3594V20.3594H509.901V24.3594ZM524.058 24.3594H520.058V68.0938H524.058H528.058V24.3594H524.058ZM524.058 68.0938H520.058C520.058 72.454 519.057 76.1034 517.176 79.1787L520.589 81.2656L524.001 83.3526C526.746 78.8653 528.058 73.7335 528.058 68.0938H524.058ZM520.589 81.2656L517.172 79.1867C515.317 82.2353 512.649 84.6576 509.024 86.443L510.792 90.0312L512.56 93.6195C517.436 91.2174 521.298 87.7959 524.006 83.3445L520.589 81.2656ZM510.792 90.0312L509.014 86.4482C505.462 88.211 501.082 89.1719 495.745 89.1719V93.1719V97.1719C502.033 97.1719 507.685 96.039 512.57 93.6143L510.792 90.0312ZM535.355 92H531.355V96H535.355V92ZM535.355 24.3594V20.3594H531.355V24.3594H535.355ZM579.651 24.3594H583.651V20.3594H579.651V24.3594ZM579.651 36.0312V40.0312H583.651V36.0312H579.651ZM549.511 36.0312V32.0312H545.511V36.0312H549.511ZM549.511 54.1719H545.511V58.1719H549.511V54.1719ZM577.026 54.1719H581.026V50.1719H577.026V54.1719ZM577.026 65.375V69.375H581.026V65.375H577.026ZM549.511 65.375V61.375H545.511V65.375H549.511ZM549.511 92V96H553.511V92H549.511ZM535.355 92H539.355V24.3594H535.355H531.355V92H535.355ZM535.355 24.3594V28.3594H579.651V24.3594V20.3594H535.355V24.3594ZM579.651 24.3594H575.651V36.0312H579.651H583.651V24.3594H579.651ZM579.651 36.0312V32.0312H549.511V36.0312V40.0312H579.651V36.0312ZM549.511 36.0312H545.511V54.1719H549.511H553.511V36.0312H549.511ZM549.511 54.1719V58.1719H577.026V54.1719V50.1719H549.511V54.1719ZM577.026 54.1719H573.026V65.375H577.026H581.026V54.1719H577.026ZM577.026 65.375V61.375H549.511V65.375V69.375H577.026V65.375ZM549.511 65.375H545.511V92H549.511H553.511V65.375H549.511ZM549.511 92V88H535.355V92V96H549.511V92ZM595.167 70.6719H591.167V74.6719H595.167V70.6719ZM595.167 59.6094V55.6094H591.167V59.6094H595.167ZM621.23 56.5156L623.932 59.4642L623.934 59.4626L621.23 56.5156ZM621.23 38.6562L618.527 41.6049L618.537 41.6141L618.547 41.6234L621.23 38.6562ZM595.167 35.5625H591.167V39.5625H595.167V35.5625ZM595.167 24.3594V20.3594H591.167V24.3594H595.167ZM627.698 27.2656L625.787 30.7796L625.799 30.7861L625.811 30.7925L627.698 27.2656ZM635.995 35.3281L632.516 37.3025L632.523 37.3144L632.53 37.3261L635.995 35.3281ZM635.995 59.75L632.53 57.752L632.523 57.7638L632.516 57.7756L635.995 59.75ZM588.042 92H584.042V96H588.042V92ZM588.042 24.3594V20.3594H584.042V24.3594H588.042ZM602.198 24.3594H606.198V20.3594H602.198V24.3594ZM602.198 92V96H606.198V92H602.198ZM595.167 70.6719H599.167V59.6094H595.167H591.167V70.6719H595.167ZM595.167 59.6094V63.6094H611.761V59.6094V55.6094H595.167V59.6094ZM611.761 59.6094V63.6094C616.486 63.6094 620.729 62.4011 623.932 59.4642L621.23 56.5156L618.527 53.567C617.231 54.7551 615.161 55.6094 611.761 55.6094V59.6094ZM621.23 56.5156L623.934 59.4626C627.233 56.435 628.651 52.2832 628.651 47.6094H624.651H620.651C620.651 50.623 619.789 52.4087 618.525 53.5687L621.23 56.5156ZM624.651 47.6094H628.651V47.5156H624.651H620.651V47.6094H624.651ZM624.651 47.5156H628.651C628.651 42.8444 627.234 38.692 623.912 35.6891L621.23 38.6562L618.547 41.6234C619.788 42.7455 620.651 44.4993 620.651 47.5156H624.651ZM621.23 38.6562L623.932 35.7076C620.729 32.7708 616.486 31.5625 611.761 31.5625V35.5625V39.5625C615.161 39.5625 617.231 40.4167 618.527 41.6049L621.23 38.6562ZM611.761 35.5625V31.5625H595.167V35.5625V39.5625H611.761V35.5625ZM595.167 35.5625H599.167V24.3594H595.167H591.167V35.5625H595.167ZM595.167 24.3594V28.3594H615.23V24.3594V20.3594H595.167V24.3594ZM615.23 24.3594V28.3594C619.427 28.3594 622.904 29.2117 625.787 30.7796L627.698 27.2656L629.609 23.7517C625.367 21.4446 620.532 20.3594 615.23 20.3594V24.3594ZM627.698 27.2656L625.811 30.7925C628.716 32.347 630.926 34.5003 632.516 37.3025L635.995 35.3281L639.474 33.3537C637.127 29.2185 633.805 25.9968 629.585 23.7388L627.698 27.2656ZM635.995 35.3281L632.53 37.3261C634.128 40.0985 634.995 43.435 634.995 47.4688H638.995H642.995C642.995 42.2525 641.862 37.4953 639.46 33.3301L635.995 35.3281ZM638.995 47.4688H634.995V47.5625H638.995H642.995V47.4688H638.995ZM638.995 47.5625H634.995C634.995 51.6328 634.126 54.9836 632.53 57.752L635.995 59.75L639.46 61.748C641.864 57.5789 642.995 52.8047 642.995 47.5625H638.995ZM635.995 59.75L632.516 57.7756C630.926 60.5778 628.716 62.7312 625.811 64.2857L627.698 67.8125L629.585 71.3393C633.805 69.0813 637.127 65.8597 639.474 61.7244L635.995 59.75ZM627.698 67.8125L625.811 64.2857C622.923 65.8309 619.437 66.6719 615.23 66.6719V70.6719V74.6719C620.522 74.6719 625.348 73.6066 629.585 71.3393L627.698 67.8125ZM615.23 70.6719V66.6719H595.167V70.6719V74.6719H615.23V70.6719ZM588.042 92H592.042V24.3594H588.042H584.042V92H588.042ZM588.042 24.3594V28.3594H602.198V24.3594V20.3594H588.042V24.3594ZM602.198 24.3594H598.198V92H602.198H606.198V24.3594H602.198ZM602.198 92V88H588.042V92V96H602.198V92ZM647.386 92H643.386V96H647.386V92ZM647.386 24.3594V20.3594H643.386V24.3594H647.386ZM692.198 24.3594H696.198V20.3594H692.198V24.3594ZM692.198 36.0312V40.0312H696.198V36.0312H692.198ZM661.542 36.0312V32.0312H657.542V36.0312H661.542ZM661.542 52.25H657.542V56.25H661.542V52.25ZM690.464 52.25H694.464V48.25H690.464V52.25ZM690.464 63.3125V67.3125H694.464V63.3125H690.464ZM661.542 63.3125V59.3125H657.542V63.3125H661.542ZM661.542 80.3281H657.542V84.3281H661.542V80.3281ZM692.198 80.3281H696.198V76.3281H692.198V80.3281ZM692.198 92V96H696.198V92H692.198ZM647.386 92H651.386V24.3594H647.386H643.386V92H647.386ZM647.386 24.3594V28.3594H692.198V24.3594V20.3594H647.386V24.3594ZM692.198 24.3594H688.198V36.0312H692.198H696.198V24.3594H692.198ZM692.198 36.0312V32.0312H661.542V36.0312V40.0312H692.198V36.0312ZM661.542 36.0312H657.542V52.25H661.542H665.542V36.0312H661.542ZM661.542 52.25V56.25H690.464V52.25V48.25H661.542V52.25ZM690.464 52.25H686.464V63.3125H690.464H694.464V52.25H690.464ZM690.464 63.3125V59.3125H661.542V63.3125V67.3125H690.464V63.3125ZM661.542 63.3125H657.542V80.3281H661.542H665.542V63.3125H661.542ZM661.542 80.3281V84.3281H692.198V80.3281V76.3281H661.542V80.3281ZM692.198 80.3281H688.198V92H692.198H696.198V80.3281H692.198ZM692.198 92V88H647.386V92V96H692.198V92Z" fill="#E6C834" mask="url(#path-1-outside-1_3_10)"/>
<mask id="path-3-outside-2_3_10" maskUnits="userSpaceOnUse" x="1" y="20" width="54" height="76" fill="black">
<rect fill="white" x="1" y="20" width="54" height="76"/>
<path d="M5.625 92V24.3594H50.4375V36.0312H19.7812V52.25H48.7031V63.3125H19.7812V80.3281H50.4375V92H5.625Z"/>
</mask>
<path d="M5.625 92V24.3594H50.4375V36.0312H19.7812V52.25H48.7031V63.3125H19.7812V80.3281H50.4375V92H5.625Z" fill="#10BD00"/>
<path d="M5.625 92H1.625V96H5.625V92ZM5.625 24.3594V20.3594H1.625V24.3594H5.625ZM50.4375 24.3594H54.4375V20.3594H50.4375V24.3594ZM50.4375 36.0312V40.0312H54.4375V36.0312H50.4375ZM19.7812 36.0312V32.0312H15.7812V36.0312H19.7812ZM19.7812 52.25H15.7812V56.25H19.7812V52.25ZM48.7031 52.25H52.7031V48.25H48.7031V52.25ZM48.7031 63.3125V67.3125H52.7031V63.3125H48.7031ZM19.7812 63.3125V59.3125H15.7812V63.3125H19.7812ZM19.7812 80.3281H15.7812V84.3281H19.7812V80.3281ZM50.4375 80.3281H54.4375V76.3281H50.4375V80.3281ZM50.4375 92V96H54.4375V92H50.4375ZM5.625 92H9.625V24.3594H5.625H1.625V92H5.625ZM5.625 24.3594V28.3594H50.4375V24.3594V20.3594H5.625V24.3594ZM50.4375 24.3594H46.4375V36.0312H50.4375H54.4375V24.3594H50.4375ZM50.4375 36.0312V32.0312H19.7812V36.0312V40.0312H50.4375V36.0312ZM19.7812 36.0312H15.7812V52.25H19.7812H23.7812V36.0312H19.7812ZM19.7812 52.25V56.25H48.7031V52.25V48.25H19.7812V52.25ZM48.7031 52.25H44.7031V63.3125H48.7031H52.7031V52.25H48.7031ZM48.7031 63.3125V59.3125H19.7812V63.3125V67.3125H48.7031V63.3125ZM19.7812 63.3125H15.7812V80.3281H19.7812H23.7812V63.3125H19.7812ZM19.7812 80.3281V84.3281H50.4375V80.3281V76.3281H19.7812V80.3281ZM50.4375 80.3281H46.4375V92H50.4375H54.4375V80.3281H50.4375ZM50.4375 92V88H5.625V92V96H50.4375V92Z" fill="#15FF00" mask="url(#path-3-outside-2_3_10)"/>
</svg>
