<svg width="40" height="36" viewBox="0 0 40 36" fill="none" xmlns="http://www.w3.org/2000/svg">
<path d="M12 36C10.9 36 9.95867 35.6087 9.176 34.826C8.39333 34.0433 8.00133 33.1013 8 32V28H4C2.9 28 1.95867 27.6087 1.176 26.826C0.393333 26.0433 0.00133333 25.1013 0 24V16C0 14.3 0.583333 12.8753 1.75 11.726C2.91667 10.5767 4.33333 10.0013 6 10H34C35.7 10 37.1253 10.5753 38.276 11.726C39.4267 12.8767 40.0013 14.3013 40 16V24C40 25.1 39.6087 26.042 38.826 26.826C38.0433 27.61 37.1013 28.0013 36 28H32V32C32 33.1 31.6087 34.042 30.826 34.826C30.0433 35.61 29.1013 36.0013 28 36H12ZM32 8H8V4C8 2.9 8.392 1.95867 9.176 1.176C9.96 0.393333 10.9013 0.00133333 12 0H28C29.1 0 30.042 0.392 30.826 1.176C31.61 1.96 32.0013 2.90133 32 4V8ZM32 19C32.5667 19 33.042 18.808 33.426 18.424C33.81 18.04 34.0013 17.5653 34 17C33.9987 16.4347 33.8067 15.96 33.424 15.576C33.0413 15.192 32.5667 15 32 15C31.4333 15 30.9587 15.192 30.576 15.576C30.1933 15.96 30.0013 16.4347 30 17C29.9987 17.5653 30.1907 18.0407 30.576 18.426C30.9613 18.8113 31.436 19.0027 32 19ZM12 32H28V24H12V32Z" fill="#757575"/>
</svg>
