<svg width="37" height="39" viewBox="0 0 37 39" fill="none" xmlns="http://www.w3.org/2000/svg">
<path d="M29.36 18.64C28.5244 17.8044 27.5322 17.1419 26.4401 16.6905C25.348 16.2391 24.1775 16.0078 22.9958 16.0096C21.8142 16.0115 20.6444 16.2465 19.5538 16.7014C18.4631 17.1562 17.4729 17.8218 16.64 18.66C15.8031 19.4942 15.139 20.4855 14.6859 21.5768C14.2329 22.6682 13.9996 23.8383 13.9996 25.02C13.9996 26.2017 14.2329 27.3718 14.6859 28.4632C15.139 29.5545 15.8031 30.5458 16.64 31.38C18.0823 32.8161 19.968 33.7221 21.9905 33.9509C24.0129 34.1797 26.0533 33.7177 27.78 32.64L34 38.78L36.78 36L30.6 29.78C32.86 26.24 32.34 21.6 29.36 18.64ZM26.54 28.54C24.58 30.5 21.42 30.48 19.46 28.54C17.52 26.58 17.52 23.42 19.48 21.46C21.42 19.52 24.58 19.52 26.54 21.46C28.48 23.42 28.48 26.58 26.54 28.54ZM13.8 34.2C12.4935 32.8823 11.4842 31.3002 10.84 29.56C4.54 28.5 0 25.52 0 22V28C0 32.42 7.16 36 16 36C15.2 35.48 14.46 34.88 13.8 34.2ZM0 12V18C0 21.36 4.14 24.24 10 25.4V25C10 23.14 10.4 21.3 11.16 19.62C4.68 18.6 0 15.58 0 12ZM16 0C7.16 0 0 3.58 0 8C0 12 6 15.36 13.7 16H13.8C16.2 13.48 19.52 12 23 12C24.82 12 26.62 12.38 28.28 13.12C29.2884 12.659 30.1606 11.9455 30.8123 11.0485C31.464 10.1515 31.8731 9.10146 32 8C32 3.58 24.84 0 16 0Z" fill="#757575"/>
</svg>
