<svg width="140" height="140" viewBox="0 0 140 140" fill="none" xmlns="http://www.w3.org/2000/svg">
<path d="M118.125 21.875H21.875C19.5544 21.875 17.3288 22.7969 15.6878 24.4378C14.0469 26.0788 13.125 28.3044 13.125 30.625V109.375C13.125 111.696 14.0469 113.921 15.6878 115.562C17.3288 117.203 19.5544 118.125 21.875 118.125H118.125C120.446 118.125 122.671 117.203 124.312 115.562C125.953 113.921 126.875 111.696 126.875 109.375V30.625C126.875 28.3044 125.953 26.0788 124.312 24.4378C122.671 22.7969 120.446 21.875 118.125 21.875ZM100.625 74.375C100.625 75.5353 100.164 76.6481 99.3436 77.4686C98.5231 78.2891 97.4103 78.75 96.25 78.75H54.3102L59.9703 84.4047C60.3768 84.8112 60.6992 85.2937 60.9192 85.8248C61.1392 86.3559 61.2524 86.9251 61.2524 87.5C61.2524 88.0749 61.1392 88.6441 60.9192 89.1752C60.6992 89.7063 60.3768 90.1888 59.9703 90.5953C59.5638 91.0018 59.0813 91.3242 58.5502 91.5442C58.0191 91.7642 57.4499 91.8774 56.875 91.8774C56.3001 91.8774 55.7309 91.7642 55.1998 91.5442C54.6687 91.3242 54.1862 91.0018 53.7797 90.5953L40.6547 77.4703C40.2479 77.064 39.9252 76.5815 39.7051 76.0504C39.4849 75.5192 39.3716 74.9499 39.3716 74.375C39.3716 73.8001 39.4849 73.2308 39.7051 72.6996C39.9252 72.1685 40.2479 71.686 40.6547 71.2797L53.7797 58.1547C54.6006 57.3338 55.714 56.8726 56.875 56.8726C58.036 56.8726 59.1494 57.3338 59.9703 58.1547C60.7912 58.9756 61.2524 60.089 61.2524 61.25C61.2524 62.411 60.7912 63.5244 59.9703 64.3453L54.3102 70H91.875V56.875C91.875 55.7147 92.3359 54.6019 93.1564 53.7814C93.9769 52.9609 95.0897 52.5 96.25 52.5C97.4103 52.5 98.5231 52.9609 99.3436 53.7814C100.164 54.6019 100.625 55.7147 100.625 56.875V74.375Z" fill="#757575"/>
</svg>
